<svg xmlns="http://www.w3.org/2000/svg" viewBox="0 0 208.78 208.78"><defs><style>.cls-1{fill:#2d96da;}</style></defs><g id="Layer_2" data-name="Layer 2"><g id="OBJECTS"><path class="cls-1" d="M159.66,84.3a8.55,8.55,0,0,1-2.44,3.23l-2.86-7.74A30.52,30.52,0,0,0,138.9,62.85a34.28,34.28,0,0,1-.85,7.35,25.72,25.72,0,0,1,8.3,11.34l3.06,8.27a6,6,0,0,1-2,6.79,71,71,0,0,1-34.12,13.9V88.21a26.33,26.33,0,0,0,7.39-45.47V64.46l-16.31,9.41L88.08,64.46V42.74a26.34,26.34,0,0,0,7.39,45.47V110.5a71,71,0,0,1-34-13.85l-.07-.05a5.94,5.94,0,0,1-2-6.79l3-8.23a25.61,25.61,0,0,1,8.32-11.36A34.55,34.55,0,0,1,69.88,63,30.49,30.49,0,0,0,54.61,79.83l-2.86,7.72a8.71,8.71,0,0,1-2.53-3.4,5,5,0,0,0-9.46.5c-.87,3.27,2,6.9,6.5,8.09a18.47,18.47,0,0,0,3.33.65l-.36,1a38.61,38.61,0,0,1-4.63,8.81l-1.23,1.75a7.31,7.31,0,0,0-1.31,4.65l1.44,22.34a8.8,8.8,0,0,0,8.78,8.24h.84v9.51a3.1,3.1,0,0,0,3.1,3.1h9.22a3.1,3.1,0,0,0,3.1-3.1v-9.51h71.7v9.51a3.1,3.1,0,0,0,3.1,3.1h9.22a3.1,3.1,0,0,0,3.1-3.1v-9.51h1a8.81,8.81,0,0,0,8.79-8.3l1.29-22.38a7.29,7.29,0,0,0-1.24-4.5l-1.38-2a39.12,39.12,0,0,1-4.23-8.24l-.49-1.34a19.47,19.47,0,0,0,3.14-.63c4.47-1.19,7.38-4.82,6.5-8.09a4.77,4.77,0,0,0-1.12-2A5,5,0,0,0,159.66,84.3Zm-90.58,37H65.29c-12.8,0-13.06-8.31-13.06-8.31H69.08a4.16,4.16,0,0,1,0,8.31Zm74.42,0h-3.8a4.16,4.16,0,0,1,0-8.31h16.85S156.54,121.31,143.5,121.31Z"/><path class="cls-1" d="M200.05,99.27l8.73-9.42-2.38-12-11.67-5.37c-1.51-3.63-2.42-5.82-3.92-9.46l4.46-12-6.78-10.14-12.84-.49-7.24-7.24-.49-12.84-10.14-6.78L145.73,18l-9.46-3.91L130.9,2.38,118.94,0l-9.43,8.73H99.27L89.85,0l-12,2.38L72.52,14.06,63.05,18,51,13.51,40.86,20.29l-.49,12.84-7.24,7.24-12.84.49L13.51,51l4.46,12c-1.5,3.64-2.41,5.83-3.91,9.46L2.38,77.88,0,89.85l8.73,9.42v10.24L0,118.94l2.38,12,11.68,5.37c1.5,3.64,2.41,5.82,3.91,9.46l-4.46,12.05,6.78,10.14,12.84.49,7.24,7.24.49,12.84L51,195.27l12-4.46,9.47,3.92,5.36,11.67,12,2.38,9.42-8.73h10.24l9.43,8.73,12-2.38,5.37-11.67,9.46-3.92,12.05,4.46,10.14-6.78.49-12.84,7.24-7.24,12.84-.49,6.78-10.14-4.46-12.05c1.5-3.64,2.41-5.82,3.92-9.46l11.67-5.37,2.38-12-8.73-9.43Zm-95.66,88.67a83.55,83.55,0,1,1,83.55-83.55A83.55,83.55,0,0,1,104.39,187.94Z"/></g></g></svg>