<?xml version="1.0" encoding="utf-8"?>
<!-- Generator: Adobe Illustrator 26.0.3, SVG Export Plug-In . SVG Version: 6.00 Build 0)  -->
<svg version="1.0" id="katman_1" xmlns="http://www.w3.org/2000/svg" xmlns:xlink="http://www.w3.org/1999/xlink" x="0px" y="0px"
	 viewBox="0 0 600 450" style="enable-background:new 0 0 600 450;" xml:space="preserve">
<style type="text/css">
	.st0{fill-rule:evenodd;clip-rule:evenodd;}
</style>
<g>
	<path d="M126.9,287c-36.2,0-55.4-17.1-55.4-49.6v-17.7h35.3V237c0,9.5,6.1,19.6,19.6,19.6c13,0,20.8-7.2,20.8-19.3v-95h36.5v94.2
		c0,6.9-1.3,20.1-9.7,31.3C164.5,280.6,148.7,287,126.9,287"/>
	<path d="M238.9,182c28.1,0,52.7,10.8,52.7,60.4H225c0,15.8,6.5,22.3,18.1,22.3c11.5,0,15.4-9.2,15.4-9.2h32.7
		c0,14.2-19.6,33.5-49.2,33.1c-33.8,0-50.4-25-50.4-50.8C191.6,212,206.2,182,238.9,182 M258.9,222.4c0-9.6-5.4-18.8-17.7-18.8
		c-11.9,0-16.2,8.5-16.2,18.8H258.9z"/>
	<path d="M345.8,182c28.1,0,52.7,10.8,52.7,60.4H332c0,15.8,6.5,22.3,18.1,22.3c11.5,0,15.4-9.2,15.4-9.2h32.7
		c0,14.2-19.6,33.5-49.2,33.1c-33.8,0-50.4-25-50.4-50.8C298.5,212,313.1,182,345.8,182 M365.8,222.4c0-9.6-5.4-18.8-17.7-18.8
		c-11.9,0-16.2,8.5-16.2,18.8H365.8z"/>
	<path d="M406.9,318.5V185.8H440c0,0,0,11.7,0,15.1c1.2-2.6,2-4.3,4.6-7.4c2.2-2.7,8.5-10.4,25-10.4c16.5,0,42.3,11.5,42.3,52.3
		c0,31.5-15.4,54.6-41.9,54.6c-14.6,0-21.2-5.1-25-8.1c-2.4-1.9-3.2-2.8-4.6-4.6c0,2.7,0,41.2,0,41.2H406.9z M439.6,236.6
		c-0.4,19.6,3.8,30,20,30c16.2,0,18.5-17.7,18.5-31.2c0-13.5-3.1-26.5-20-26.5C447.7,208.9,440,217,439.6,236.6"/>
	<path class="st0" d="M502.5,318.7c-2.8,0-5.2-1-7.1-3c-1.9-2-2.9-4.4-2.9-7.1c0-2.8,1-5.1,2.9-7.1c1.9-1.9,4.3-2.9,7.1-2.9
		c2.8,0,5.2,1,7.1,2.9c2,2,2.9,4.3,2.9,7.1c0,2.8-1,5.2-2.9,7.1C507.6,317.7,505.3,318.7,502.5,318.7 M502.5,300.3
		c-2.3,0-4.3,0.8-5.9,2.5c-1.6,1.6-2.4,3.6-2.4,5.9c0,2.3,0.8,4.3,2.4,5.9c1.6,1.6,3.6,2.5,5.9,2.5c2.3,0,4.3-0.8,5.9-2.5
		c1.6-1.6,2.4-3.6,2.4-5.9c0-2.3-0.8-4.3-2.4-5.9C506.7,301.1,504.8,300.3,502.5,300.3 M505,314.2L505,314c0,0,0-0.1,0-0.1l0-0.4
		v-0.9c0-1.2-0.3-2-0.9-2.3c-0.4-0.2-1.1-0.3-2-0.3h-1.3v4.3h-2.3V303h4c1.4,0,2.4,0.1,3,0.4c1.2,0.5,1.8,1.5,1.8,2.9
		c0,1-0.4,1.8-1.1,2.3c-0.2,0.2-0.5,0.3-0.9,0.4c0.5,0.2,0.9,0.5,1.2,0.9c0.4,0.6,0.6,1.2,0.6,1.8v0.8c0,0.2,0,0.5,0,0.8
		c0,0.4,0.1,0.5,0.1,0.5l0.2,0.4H505z M502.1,308.2c0.8,0,1.4-0.1,1.8-0.2c0.7-0.3,1-0.8,1-1.5c0-0.7-0.2-1.2-0.6-1.4
		c-0.4-0.3-1.2-0.4-2.2-0.4h-1.4v3.6H502.1z"/>
</g>
</svg>
