<?xml version="1.0" encoding="utf-8"?>
<!-- Generator: Adobe Illustrator 25.0.0, SVG Export Plug-In . SVG Version: 6.00 Build 0)  -->
<svg version="1.1" id="katman_1" xmlns="http://www.w3.org/2000/svg" xmlns:xlink="http://www.w3.org/1999/xlink" x="0px" y="0px"
	 viewBox="0 0 164 110" style="enable-background:new 0 0 164 110;" xml:space="preserve">
<path d="M91.5,65.8c0,0.2,0.1,0.3,0.2,0.3s0.2,0,0.3-0.1l37-24c0.6-0.4,1.4-0.7,2.2-0.7h8.1c1.1-0.1,2,0.8,2.1,1.9v15.7
	c0,1.9-0.4,3-2.1,4l-9.9,5.9c-0.1,0.1-0.2,0.1-0.3,0.1c-0.1,0-0.2-0.1-0.2-0.4V50.4c0-0.2-0.1-0.3-0.2-0.3c-0.1,0-0.2,0-0.3,0.1
	l-27.1,17.6c-0.6,0.4-1.4,0.6-2.1,0.6h-18c-1.1,0.1-2-0.8-2.1-1.9V43.9c0-0.1-0.1-0.3-0.2-0.3c-0.1,0-0.2,0-0.3,0.1L60.9,54.5
	c-0.1,0-0.2,0.2-0.2,0.3c0,0.1,0.1,0.2,0.2,0.3l12.8,12.8c0.1,0.1,0.2,0.3,0.3,0.4c0,0.2-0.2,0.2-0.4,0.2H61.9
	c-0.8,0.1-1.5-0.1-2.1-0.6l-7.7-7.7C52,60,52,60,51.9,60c-0.1,0-0.2,0-0.2,0.1l-13,7.8c-0.6,0.4-1.4,0.6-2.1,0.6H24.8
	c-1.1,0.1-2-0.8-2.1-1.9V51.1c-0.2-1.6,0.6-3.2,2.1-4l9.9-5.9c0-0.2,0.1-0.2,0.2-0.2c0.1,0,0.2,0.2,0.2,0.5V62
	c0,0.2,0.1,0.3,0.2,0.3c0.1,0,0.2-0.1,0.3-0.1l33.6-20.3c0.7-0.4,1.4-0.7,2.2-0.6h18c1.1-0.1,2,0.8,2.1,1.9L91.5,65.8L91.5,65.8z"/>
</svg>
