<?xml version="1.0" encoding="utf-8"?>
<!-- Generator: Adobe Illustrator 28.4.1, SVG Export Plug-In . SVG Version: 6.00 Build 0)  -->
<svg version="1.0" id="katman_1" xmlns="http://www.w3.org/2000/svg" xmlns:xlink="http://www.w3.org/1999/xlink" x="0px" y="0px"
	 viewBox="0 0 841.9 595.3" style="enable-background:new 0 0 841.9 595.3;" xml:space="preserve">
<style type="text/css">
	.st0{fill-rule:evenodd;clip-rule:evenodd;fill:#0C121C;}
</style>
<path class="st0" d="M548.4,351.1l6.5-17.7h-29.8l4.6-13.5H562l7.1-19.5h-61l-0.8,2.5l1.5,1.4c1.6,1.5,1.5,3.3,0.2,7.3L483.5,385h57
	l6.9-19.6h-33.3l4.9-14.2H548.4L548.4,351.1z M477.3,300.5l-31,60.7h-0.7l-1.6-60.7h-26l-1,2.2l2.2,1.3c2.1,1.5,2.7,3,3,7.3
	l3.5,73.7h28.9l46.7-84.5L477.3,300.5L477.3,300.5z M244.4,311.4l-64,21l-7.8,21.4H229l7.4-20.1h-39.1l44.4-15L244.4,311.4z
	 M305,331.2c-1.5,3.6-3.1,4.5-5.2,5.3c-1.4,0.6-4.4,0.8-7.3,0.8h-11.2l6.1-17.5H301c4,0,5.7,2.1,5.7,4.5
	C306.7,325.8,306,328.6,305,331.2L305,331.2z M303,300.5h-36.6l-0.7,2.2l1.5,1.4c1.6,1.5,1.5,3.3,0.1,7.3L241.7,385H265l10-29.2
	l7.9,0l8.8,29.2h23.5l-11.1-29.9c6.4-1,9.6-2.9,12.9-5.7c4.4-4,7.5-9.6,10-17.9c3.7-12,1.5-18.9-0.9-22.4
	C322.9,304.2,316,300.5,303,300.5L303,300.5z M616.8,331.2c-1.5,3.6-3.1,4.5-5.2,5.3c-1.4,0.6-4.4,0.8-7.3,0.8h-11.2l6-17.5h13.5
	c4,0,5.7,2.1,5.7,4.5C618.6,325.8,617.8,328.6,616.8,331.2L616.8,331.2z M614.8,300.5h-36.6l-0.7,2.2l1.5,1.4
	c1.6,1.5,1.5,3.3,0.2,7.3L553.5,385h23.4l10-29.2h7.9l8.8,29.2h23.5l-11-29.9c6.4-1,9.6-2.9,12.8-5.7c4.4-4,7.5-9.6,10-17.9
	c3.7-12,1.5-18.9-0.9-22.4C634.7,304.2,627.8,300.5,614.8,300.5L614.8,300.5z M662.8,413.9c-64.3,33.1-150,51.3-241.4,51.3
	c-91.4,0-177.1-18.2-241.4-51.3c-61.8-31.8-95.9-73.2-95.9-116.6c0-43.4,34.1-84.8,95.9-116.6c64.3-33,150-51.3,241.4-51.3
	c91.4,0,177.1,18.2,241.4,51.3c61.8,31.8,95.8,73.2,95.8,116.6C758.7,340.7,724.7,382.1,662.8,413.9L662.8,413.9z M671.5,163.9
	c-66.9-34.4-155.7-53.4-250.1-53.4c-94.4,0-183.2,19-250.1,53.4c-39.6,20.4-106.1,64.8-106.1,133.4c0,68.5,66.5,113,106.1,133.4
	c66.9,34.4,155.7,53.4,250.1,53.4c94.4,0,183.2-18.9,250.1-53.4c39.6-20.4,106.1-64.8,106.1-133.4
	C777.7,228.7,711.2,184.3,671.5,163.9z M653.8,396.6c-69.1,35.6-155.1,49.1-232.4,49.1c-77.3,0-163.2-13.5-232.4-49.1
	c-36.6-18.8-85.2-53.5-85.2-99.3c0-45.8,48.6-80.4,85.2-99.3c69.2-35.6,155.1-49.1,232.4-49.1c77.3,0,163.3,13.5,232.4,49.1
	c36.6,18.8,85.2,53.5,85.2,99.3C739.1,343,690.5,377.7,653.8,396.6L653.8,396.6z M657.4,191.1c-70.2-36.1-157.6-50-236-50
	c-78.4,0-165.8,13.8-236,50C146,211.4,96,248,96,297.3c0,49.3,50.1,85.9,89.5,106.2c70.2,36.1,157.6,49.9,236,49.9
	c78.4,0,165.8-13.8,236-49.9c39.5-20.3,89.5-56.9,89.5-106.2C746.9,248,696.9,211.4,657.4,191.1L657.4,191.1z M384.8,344.3
	c-2.9,8.3-5.2,13.6-8.6,17.2c-2.7,2.8-6.1,4.8-14.2,4.8c-6.3,0-9.8-2.6-9.8-7.4c0-3.1,0.8-7.9,4.2-17.2c2.9-8.3,5.2-13.6,8.6-17.2
	c2.6-2.8,6.1-4.8,14.2-4.8c6.3,0,9.8,2.6,9.8,7.4C389.1,330.2,388.2,335,384.8,344.3L384.8,344.3z M383.5,299.5h-2.7
	c-16,0-25.1,4.3-32.6,12.2c-9.3,9.8-18.1,36.4-17.9,50.4c0.2,14.3,9.5,24.2,29,24.2h2.9c16,0,25.2-4.3,32.7-12.2
	c9.3-9.8,17.9-36.4,17.7-50.4C412.4,309.4,403.1,299.5,383.5,299.5z M214.9,282.3l57.9,0l7-20.1h-33.7l22.2-64.3h-29l-0.7,2.2
	l1.5,1.4c1.6,1.5,1.5,3.4,0.2,7.3L214.9,282.3z M367.5,282.2h21.3l18.6-54.6l10.9,54.6h21.3l29-84.4l-22.3,0l-15.5,45.9l-8.9-45.9
	h-30l-0.7,2.2l1.5,1.4c1.6,1.5,1.5,3.4,0.2,7.3L367.5,282.2L367.5,282.2z M499.1,217.9h9.3c6.3,0,9.8,2.1,9.9,7
	c0,3.1-0.8,7.4-4.1,16.7c-2.9,8.3-5.2,13.1-8.5,16.6c-2.6,2.8-6.1,4-14.2,4h-7.7L499.1,217.9z M478.8,208.7l-25.3,73.6h37.4
	c16,0,25.2-3.5,32.6-11.4c9.3-9.8,17.8-35.3,17.5-49.3c-0.3-14.3-9.6-23.7-29.1-23.7h-34l-0.7,2.2l1.5,1.4
	C480.2,203,480.1,204.8,478.8,208.7z M619.8,228.1h-56.4l-7.4,20.1h39.1l-44.4,15l-2.7,7.2l64-21L619.8,228.1L619.8,228.1z
	 M338.1,221.2h0.8l0.4,25.5h-15.6C323.6,246.7,338.1,221.2,338.1,221.2z M278.8,282.2h24.6l10.7-18.7h25.5l0.3,18.7h22.3l-4.8-84.4
	H324l-0.7,2.2l1.1,1.1c1.8,1.7,1,4.2-5.5,14.5L278.8,282.2L278.8,282.2z"/>
</svg>
