<?xml version="1.0" encoding="utf-8"?>
<!-- Generator: Adobe Illustrator 29.6.1, SVG Export Plug-In . SVG Version: 9.03 Build 0)  -->
<svg version="1.0"
	 id="svg1" xmlns:svg="http://www.w3.org/2000/svg" xmlns:sodipodi="http://sodipodi.sourceforge.net/DTD/sodipodi-0.dtd" xmlns:inkscape="http://www.inkscape.org/namespaces/inkscape" inkscape:version="1.4 (86a8ad7, 2024-10-11)"
	 xmlns="http://www.w3.org/2000/svg" xmlns:xlink="http://www.w3.org/1999/xlink" x="0px" y="0px" viewBox="0 0 841.9 595.3"
	 style="enable-background:new 0 0 841.9 595.3;" xml:space="preserve">
<sodipodi:namedview  bordercolor="#000000" borderopacity="0.25" id="namedview1" inkscape:current-layer="svg1" inkscape:cx="2434.5559" inkscape:cy="2157.5472" inkscape:deskcolor="#d1d1d1" inkscape:pagecheckerboard="0" inkscape:pageopacity="0.0" inkscape:showpageshadow="2" inkscape:window-height="705" inkscape:window-maximized="1" inkscape:window-width="1366" inkscape:window-x="-8" inkscape:window-y="-8" inkscape:zoom="0.12815479" pagecolor="#ffffff">
	</sodipodi:namedview>
<g id="g7" transform="matrix(13.674773,0,0,13.674773,-30.357996,-306.12347)">
	<path id="path2" sodipodi:nodetypes="ssssssscssscssscsscsssccssscsssssc" d="M32.8,26.5c-9.3,0-15.3,5.3-15.3,12.5
		s6,12.5,15.3,12.5S48.2,46.1,48.2,39S42.2,26.5,32.8,26.5L32.8,26.5z M32.8,27.8c4.3,0,7.3,1.2,9.5,3.2c0.6,0.6,1.1,1.1,1.6,1.8
		l-6.2,3.1c-0.6,0.3-1.6,0.8-1.9,1.2c-0.3,0.3-0.7,0.8-1.1,1.4l-1.9,2.7L31,38.4c-0.4-0.6-0.8-1.1-1.1-1.4c-0.3-0.3-1.4-0.9-1.9-1.2
		l-6.2-3.1c0.4-0.6,1-1.2,1.6-1.8C25.5,29,28.5,27.8,32.8,27.8z M20.3,35.7l6.7,3.1c1.3,0.6,2.1,1,2.6,1.3c0.5,0.4,0.9,1,2,2.5
		l1.1,1.5H33l1.1-1.5c1-1.4,1.5-2.1,2-2.5c0.4-0.4,1.3-0.8,2.6-1.3l6.7-3.1c0.3,1,0.4,2.1,0.4,3.3c0,3.2-1,5.8-3.4,8
		c-2.2,2-5.2,3.2-9.5,3.2s-7.3-1.2-9.5-3.2c-2.4-2.2-3.4-4.7-3.4-8C19.9,37.8,20.1,36.7,20.3,35.7L20.3,35.7z"/>
	<g id="g6">
		<path id="text6" d="M16.8,59.8l-1.9-4h-1.2l-0.6,6h0.8l0.4-4.6h0l2.1,4.2h0.4l2.1-4.3h0l0.4,4.6h1.2l-0.6-6h-1.2L16.8,59.8
			L16.8,59.8z"/>
		<path id="text5" d="M26.6,59.7l0.8,2.1h1.3l-2.4-6l-1,0.1l-2.5,5.9h0.8l0.9-2.1H26.6z M24.7,59.1l0.8-2.1h0l0.8,2.1H24.7z"/>
		<path id="text4" d="M31.5,55.8l-0.2,0.7h3.1v0.1l-3.4,5v0.3h5.2l0.4-0.8h-0.1c-0.6,0.1-1.2,0.1-3.8,0.1v-0.1l3.5-5v-0.3L31.5,55.8
			z"/>
		<path id="text3" d="M41.7,55.8h-2.4v6h2.2c2,0,3.4-1.1,3.4-3C44.9,56.8,43.7,55.8,41.7,55.8L41.7,55.8z M41.4,61.2h-0.9v-4.7h1
			c1.5,0,2.2,0.9,2.2,2.4C43.6,60.3,42.9,61.2,41.4,61.2L41.4,61.2z"/>
		<path id="text2" d="M50.8,59.7l0.8,2.1h1.3l-2.4-6l-1,0.1L47,61.8h0.8l0.9-2.1H50.8z M48.9,59.1l0.8-2.1h0l0.8,2.1H48.9z"/>
	</g>
</g>
</svg>
