<?xml version="1.0" encoding="utf-8"?>
<!-- Generator: Adobe Illustrator 24.3.0, SVG Export Plug-In . SVG Version: 6.00 Build 0)  -->
<svg version="1.1" id="katman_1" xmlns="http://www.w3.org/2000/svg" xmlns:xlink="http://www.w3.org/1999/xlink" x="0px" y="0px"
	 viewBox="0 0 2500 2500" style="enable-background:new 0 0 2500 2500;" xml:space="preserve">
<style type="text/css">
	.st0{fill-rule:evenodd;clip-rule:evenodd;}
</style>
<g>
	<path class="st0" d="M1692.5,246.4H816.6L246.4,816.6v869l565.7,568h871.3l570.2-570.2V812.1L1692.5,246.4L1692.5,246.4z
		 M2080.3,1605.8l-474.4,474.4H894.2l-474.4-472.2V894.2L894.2,422h720.8l465.3,467.6L2080.3,1605.8L2080.3,1605.8z"/>
	<path class="st0" d="M823.8,1021.9L702.9,775.6L522.7,944.3v604.4l173.4,175.6v-588.5l150.5,335.3l171.1-447.1v937.5h191.6V533.8
		h-203L823.8,1021.9z M1343.3,533.8v1427.9h219l415.1-412.8v-301.1H1658v173.4h118.6c31.9-4.6,34.2,31.9,11.4,59.3
		c-22.8,27.4-253.2,253.2-253.2,253.2V761.9l269.1,280.5v68.4h173.4V951.2l-410.6-417.4H1343.3L1343.3,533.8z"/>
</g>
</svg>
