<?xml version="1.0" encoding="utf-8"?>
<!-- Generator: Adobe Illustrator 26.0.3, SVG Export Plug-In . SVG Version: 6.00 Build 0)  -->
<svg version="1.0"
	 id="レイヤー_1" inkscape:version="0.92.2 (5c3e80d, 2017-08-06)" xmlns:cc="http://creativecommons.org/ns#" xmlns:dc="http://purl.org/dc/elements/1.1/" xmlns:inkscape="http://www.inkscape.org/namespaces/inkscape" xmlns:rdf="http://www.w3.org/1999/02/22-rdf-syntax-ns#" xmlns:sodipodi="http://sodipodi.sourceforge.net/DTD/sodipodi-0.dtd" xmlns:svg="http://www.w3.org/2000/svg"
	 xmlns="http://www.w3.org/2000/svg" xmlns:xlink="http://www.w3.org/1999/xlink" x="0px" y="0px" viewBox="0 0 327.4 238"
	 style="enable-background:new 0 0 327.4 238;" xml:space="preserve">
<style type="text/css">
	.st0{fill:#231916;}
	.st1{fill:#E60013;}
</style>
<g id="g44" transform="translate(-8,-1.2)">
	<g id="g34">
		<polygon id="polygon2" class="st0" points="109.8,176.6 109.8,161.8 103.5,172.4 97.1,161.8 97.1,176.6 92.4,176.6 92.4,155.6 
			98.5,155.6 103.5,164.2 108.3,155.6 114.5,155.6 114.5,176.6 		"/>
		<rect id="rect4" x="118.5" y="155.6" class="st0" width="4.7" height="21"/>
		<polygon id="polygon6" class="st0" points="125.3,155.6 141.4,155.6 141.4,160 135.7,160 135.7,176.6 130.9,176.6 130.9,160 
			125.3,160 		"/>
		<path id="path8" inkscape:connector-curvature="0" class="st0" d="M143.1,176.4V172c1,0.2,3.3,0.6,6.2,0.6c2.4,0,3.6-0.3,3.6-1.7
			c0-1.5-1-1.7-4.4-3.3c-3.3-1.5-5.8-2.8-5.8-6.4c0-4.4,2.7-5.9,7.9-5.9c2.7,0,4.6,0.2,5.9,0.4v4.4c-1.2-0.1-3.3-0.4-5.7-0.4
			c-2.8,0-3.4,0.3-3.4,1.5c0,1.2,1.5,1.8,3.8,2.8c3.5,1.6,6.3,2.9,6.3,6.9c0,4.2-2.6,6.1-8.2,6.1
			C147.1,176.9,145.1,176.7,143.1,176.4"/>
		<path id="path10" inkscape:connector-curvature="0" class="st0" d="M160.4,169.5v-13.9h4.7v13.7c0,2.4,1.4,3.2,3.7,3.2
			c2.2,0,3.7-0.8,3.7-3.2v-13.7h4.7v13.9c0,5.1-3.3,7.4-8.4,7.4C163.7,176.9,160.4,174.6,160.4,169.5"/>
		<path id="path12" inkscape:connector-curvature="0" class="st0" d="M181.2,155.6h9.2c4.3,0,6.7,1.6,6.7,5.4c0,3-1.7,4-3.3,4.6
			c1.9,0.6,3.9,1.6,3.9,5.1c0,3.7-2.2,5.9-6.9,5.9h-9.5L181.2,155.6L181.2,155.6z M189.7,164.1c1.9,0,2.6-1,2.6-2.4
			c0-1.7-0.8-2.1-2.6-2.1h-3.8v4.5H189.7z M190,172.7c1.9,0,2.7-0.7,2.7-2.5c0-1.6-0.7-2.3-2.5-2.3h-4.3v4.8H190z"/>
		<rect id="rect14" x="200.4" y="155.6" class="st0" width="4.7" height="21"/>
		<path id="path16" inkscape:connector-curvature="0" class="st0" d="M208.5,176.4V172c1,0.2,3.3,0.6,6.2,0.6c2.4,0,3.6-0.3,3.6-1.7
			c0-1.5-1-1.7-4.4-3.3c-3.3-1.5-5.8-2.8-5.8-6.4c0-4.4,2.7-5.9,7.9-5.9c2.7,0,4.6,0.2,5.9,0.4v4.4c-1.2-0.1-3.3-0.4-5.7-0.4
			c-2.8,0-3.4,0.3-3.4,1.5c0,1.2,1.5,1.8,3.8,2.8c3.5,1.6,6.3,2.9,6.3,6.9c0,4.2-2.6,6.1-8.2,6.1
			C212.6,176.9,210.5,176.7,208.5,176.4"/>
		<polygon id="polygon18" class="st0" points="237.7,176.6 237.7,168.3 230.2,168.3 230.2,176.6 225.5,176.6 225.5,155.6 
			230.2,155.6 230.2,163.9 237.7,163.9 237.7,155.6 242.4,155.6 242.4,176.6 		"/>
		<rect id="rect20" x="246.3" y="155.6" class="st0" width="4.7" height="21"/>
		<polygon id="polygon22" class="st0" points="131.8,204.9 131.8,190.1 125.5,200.7 119.2,190.1 119.2,204.9 114.4,204.9 
			114.4,183.9 120.5,183.9 125.5,192.4 130.4,183.9 136.6,183.9 136.6,204.9 		"/>
		<path id="path24" inkscape:connector-curvature="0" class="st0" d="M139.8,194.4c0-7.5,2.9-10.8,9.1-10.8s9.1,3.3,9.1,10.8
			s-2.9,10.8-9.1,10.8S139.8,201.9,139.8,194.4 M153,194.4c0-4.3-0.7-6.5-4.2-6.5c-3.4,0-4.2,2.2-4.2,6.5s0.7,6.5,4.2,6.5
			S153,198.7,153,194.4"/>
		<polygon id="polygon26" class="st0" points="158.7,183.9 174.8,183.9 174.8,188.3 169.1,188.3 169.1,204.9 164.4,204.9 
			164.4,188.3 158.7,188.3 		"/>
		<path id="path28" inkscape:connector-curvature="0" class="st0" d="M175.6,194.4c0-7.5,2.9-10.8,9.1-10.8c6.2,0,9.1,3.3,9.1,10.8
			s-2.9,10.8-9.1,10.8C178.5,205.2,175.6,201.9,175.6,194.4 M188.8,194.4c0-4.3-0.7-6.5-4.2-6.5s-4.2,2.2-4.2,6.5s0.7,6.5,4.2,6.5
			S188.8,198.7,188.8,194.4"/>
		<path id="path30" inkscape:connector-curvature="0" class="st0" d="M196.9,183.9h8.5c4.5,0,7.4,1.7,7.4,6.7c0,3.3-1.6,5.4-4.3,6
			l5.2,8.3h-5.5l-4.4-7.5h-2.1v7.5H197L196.9,183.9L196.9,183.9z M205.2,193.3c2.1,0,2.8-1.1,2.8-2.7c0-1.6-0.7-2.7-2.8-2.7h-3.5
			v5.4H205.2z"/>
		<path id="path32" inkscape:connector-curvature="0" class="st0" d="M215.6,204.6v-4.4c1,0.2,3.3,0.6,6.2,0.6
			c2.4,0,3.6-0.3,3.6-1.7c0-1.5-1-1.7-4.4-3.3c-3.3-1.5-5.8-2.8-5.8-6.4c0-4.4,2.7-5.9,7.9-5.9c2.7,0,4.6,0.2,5.9,0.4v4.4
			c-1.2-0.1-3.3-0.4-5.7-0.4c-2.8,0-3.4,0.3-3.4,1.4c0,1.2,1.5,1.8,3.8,2.8c3.5,1.6,6.3,2.9,6.3,6.9c0,4.2-2.6,6.1-8.2,6.1
			C219.7,205.2,217.6,205,215.6,204.6"/>
	</g>
	<g id="g42">
		<polygon id="polygon36" class="st1" points="191.6,70 171.4,35.2 151.3,70 171.4,104.9 		"/>
		<polygon id="polygon38" class="st1" points="191.6,139.7 231.8,139.7 211.7,104.9 171.4,104.9 		"/>
		<polygon id="polygon40" class="st1" points="151.3,139.7 111.1,139.7 131.2,104.9 171.4,104.9 		"/>
	</g>
</g>
</svg>
