<?xml version="1.0" encoding="utf-8"?>
<!-- Generator: Adobe Illustrator 27.5.0, SVG Export Plug-In . SVG Version: 6.00 Build 0)  -->
<svg version="1.1"
	 id="Layer_2" xmlns:inkscape="http://www.inkscape.org/namespaces/inkscape" xmlns:sodipodi="http://sodipodi.sourceforge.net/DTD/sodipodi-0.dtd" xmlns:dc="http://purl.org/dc/elements/1.1/" xmlns:svg="http://www.w3.org/2000/svg" xmlns:rdf="http://www.w3.org/1999/02/22-rdf-syntax-ns#" xmlns:cc="http://creativecommons.org/ns#" inkscape:version="0.92.4 (5da689c313, 2019-01-14)"
	 xmlns="http://www.w3.org/2000/svg" xmlns:xlink="http://www.w3.org/1999/xlink" x="0px" y="0px" viewBox="0 0 1400 1039.93"
	 style="enable-background:new 0 0 1400 1039.93;" xml:space="preserve">
<sodipodi:namedview  bordercolor="#111111" borderopacity="1" fit-margin-bottom="0" fit-margin-left="0" fit-margin-right="0" fit-margin-top="0" gridtolerance="10" guidetolerance="10" id="namedview19" inkscape:current-layer="Layer_2" inkscape:cx="466.00874" inkscape:cy="330.80288" inkscape:pageopacity="0" inkscape:pageshadow="2" inkscape:window-height="1017" inkscape:window-maximized="1" inkscape:window-width="1920" inkscape:window-x="1912" inkscape:window-y="-8" inkscape:zoom="0.58645195" objecttolerance="10" pagecolor="#ffffff" showgrid="false">
	</sodipodi:namedview>
<path id="path2" inkscape:connector-curvature="0" d="M823.23,904.57h75.74c0.11,0,0.21-0.09,0.22-0.2v-24.2
	c0-0.12-0.1-0.22-0.22-0.22h-75.74c-0.11,0.01-0.21-0.07-0.22-0.17c0,0,0,0,0,0v-27.23c0-0.11,0.07-0.2,0.18-0.22h83.6
	c0.09,0.02,0.19-0.03,0.21-0.13c0-0.02,0.01-0.03,0.01-0.05v-26c0.01-0.11-0.07-0.21-0.17-0.22c0,0,0,0,0,0H793
	c-0.11,0-0.2,0.09-0.2,0.2l0,0l0,0v133.66c0.01,0.11,0.09,0.2,0.2,0.22h114.22c0.12,0,0.22-0.1,0.22-0.22v-25.96
	c0-0.12-0.1-0.22-0.22-0.22h-83.99c-0.11,0.01-0.21-0.07-0.22-0.17c0,0,0,0,0,0l0,0v-28.6c-0.03-0.12,0.04-0.24,0.15-0.29
	L823.23,904.57z"/>
<path id="path4" inkscape:connector-curvature="0" d="M617.25,830.28c-7.44-3.08-17.07-4.4-29.35-4.4h-75.96
	c-0.12,0-0.22,0.1-0.22,0.22v133.66c0.02,0.11,0.11,0.2,0.22,0.22h30.23c0.12,0,0.22-0.1,0.22-0.22v-40.9c0-0.11,0.07-0.2,0.18-0.22
	h45.27c17.6,0,30.67-3.52,39.42-11c8.8-7.04,13.2-18.9,13.2-35.2c0-11.86-1.76-21.1-5.7-27.7
	C631.02,837.84,624.75,832.65,617.25,830.28L617.25,830.28z M605,887.87c-3.96,3.52-10.08,4.84-18.83,4.84h-43.58
	c-0.11-0.02-0.19-0.11-0.2-0.22v-40.9c0.01-0.11,0.09-0.2,0.2-0.22h43.58c6.6,0,11.37,0.44,14.87,2.2c3.13,1.34,5.74,3.66,7.46,6.6
	c1.49,3.62,2.24,7.5,2.2,11.42C610.67,879.51,608.5,884.79,605,887.87L605,887.87z"/>
<path id="path6" inkscape:connector-curvature="0" d="M321.28,831.16c-11.37-5.28-26.27-7.92-43.78-7.92
	c-17.95,0-32.4,2.64-43.78,7.92c-10.94,4.55-19.93,12.8-25.41,23.3c-5.68,10.21-8.32,22.86-8.32,38.26c0,15.82,2.64,28.6,8.32,38.67
	c5.6,10.39,14.53,18.6,25.34,23.32c11.37,5.28,25.83,7.9,43.78,7.9s32.4-2.62,43.78-7.9c10.97-4.68,20.06-12.89,25.83-23.32
	c5.7-10.1,8.32-22.86,8.32-38.67c0-15.4-2.62-28.14-8.32-38.26C341.42,843.93,332.31,835.69,321.28,831.16z M319.08,916.95
	c-2.8,6.31-8,11.24-14.45,13.71c-6.6,3.08-15.77,4.84-27.15,4.84c-9.24,0.22-18.45-1.27-27.15-4.4l0,0
	c-6.32-2.9-11.43-7.9-14.48-14.15c-3.03-7.53-4.52-15.58-4.4-23.69c-0.13-8.28,1.36-16.5,4.4-24.2c2.84-6.27,8.03-11.17,14.45-13.64
	c6.6-3.08,15.4-4.84,27.15-4.84c9.38-0.26,18.73,1.23,27.56,4.4l0,0c6.26,2.78,11.26,7.81,14.01,14.08
	c3.06,7.53,4.55,15.61,4.4,23.74c0.18,8.28-1.31,16.51-4.4,24.2L319.08,916.95z"/>
<path id="path8" inkscape:connector-curvature="0" d="M1119,932.5V826.14c0.01-0.11-0.06-0.21-0.17-0.22c-0.02,0-0.03,0-0.05,0
	h-29.79c-0.12,0-0.22,0.1-0.22,0.22V959.8c0.02,0.11,0.11,0.2,0.22,0.22h110.81c0.11-0.02,0.19-0.11,0.2-0.22v-26.84
	c-0.01-0.11-0.09-0.2-0.2-0.22h-80.58c-0.11,0.01-0.21-0.07-0.22-0.17c0,0,0,0,0,0V932.5z"/>
<path id="path10" inkscape:connector-curvature="0" d="M1195.34,444.24l-547-59.4h-0.13l-149.72,78.32
	c-0.12,0.04-0.18,0.16-0.14,0.28c0.02,0.07,0.07,0.12,0.14,0.14h660.84l35.99-18.79c0.15,0,0.27-0.11,0.29-0.26
	c0.01-0.15-0.1-0.27-0.24-0.29C1195.35,444.24,1195.34,444.24,1195.34,444.24L1195.34,444.24z"/>
<path id="path12" inkscape:connector-curvature="0" d="M700.03,99.1c157.84,0.04,285.77,127.99,285.79,285.83
	c0,4.84-0.11,9.64-0.35,14.43l22,2.38c0.31-5.57,0.46-11.15,0.46-16.81c-0.21-170.09-138.27-307.81-308.37-307.6
	c-131.03,0.16-247.61,83.21-290.57,207h23.47C474.4,172.91,580.98,99.13,700.03,99.1z"/>
<path id="path14" inkscape:connector-curvature="0" d="M700.03,670.78c-157.87,0.07-285.91-127.85-285.98-285.72
	c0-0.04,0-0.09,0-0.13c0-4.86,0.13-9.68,0.37-14.5l-22-2.38c-0.31,5.59-0.46,11.21-0.46,16.87
	c0.18,170.09,138.21,307.84,308.31,307.66c131.1-0.14,247.74-83.25,290.68-207.12h-23.41C925.63,596.9,819.08,670.71,700.03,670.78z
	"/>
<path id="path16" inkscape:connector-curvature="0" d="M751.6,384.87h0.11l149.75-78.1c0.11-0.04,0.17-0.17,0.13-0.28
	c0,0,0,0,0-0.01c-0.02-0.06-0.07-0.11-0.13-0.13H240.52l-35.95,18.79c-0.12,0.04-0.18,0.16-0.14,0.28c0.02,0.07,0.07,0.12,0.14,0.14
	L751.6,384.87z"/>
</svg>
