<?xml version="1.0" encoding="utf-8"?>
<!-- Generator: Adobe Illustrator 25.0.1, SVG Export Plug-In . SVG Version: 6.00 Build 0)  -->
<svg version="1.0" id="Logo_FINAL" xmlns="http://www.w3.org/2000/svg" xmlns:xlink="http://www.w3.org/1999/xlink" x="0px" y="0px"
	 viewBox="0 0 590.1 360.6" style="enable-background:new 0 0 590.1 360.6;" xml:space="preserve">
<style type="text/css">
	.st0{fill:#33302E;}
</style>
<path class="st0" d="M450.6,166.6v14.2h-45.3v-4c0-6.2,1-10.3,8.3-10.3h37V166.6z M410.8,157.8c-11.9,0-17.4,6.3-17.4,16.5v28.6
	h11.9v-13.2h45.3v13.1h11.9v-45H410.8z M477.2,157.8v8.8h28v36.2h11.9v-36.2h28v-8.8H477.2z M317,185.4c0,6.3,1.3,8.6,8.3,8.6H375
	v8.8h-52.5c-11.9,0-17.5-5.4-17.5-15.5v-29.6h69.9v8.8h-58v8.8h55.6v8.6h-55.6v1.5L317,185.4z M231.8,173.4
	c-3.7-0.3-4.3-1.6-4.3-3.8c0-2,1.1-3.2,3.9-3.2h54.9v-8.7H230c-8,0-13.5,3.1-13.5,12s4.1,12,13.3,12.8l44.5,3.7
	c3.4,0.3,4.4,1.4,4.4,3.9c0,2.3-1,3.8-4.1,3.8h-55.9v8.8h56.8c9.8,0,14.1-3.9,14.1-13.1c0-8.4-3.9-11.8-13.4-12.6L231.8,173.4z"/>
<path class="st0" d="M45.2,164.9c0.1-4.1,0.4-14,0.6-19.8c0.3-7.5,1.8-12,4.9-14.8c4.3-3.8,9.2-4.7,21.1-5.3
	c27.5-1.5,55.5-1.3,90.6,1.2c3.7,0.3,5,0.9,5.8,1.4c1.6,1.1,1.7,2.3,2.2,8.5c0.2,3.6,0.7,13.1,1,18.3c-12.1-0.6-32.6-1.7-50.5-1.9
	s-34,0.1-35.9,0.4c-3.9,0.5-5.7,2.3-6.2,3.1l92.9,17.2v13.5L45.2,164.9z"/>
<path class="st0" d="M45.1,171.4L171.3,195c-0.1,3.4-0.4,14.3-0.6,20.6c-0.3,7.5-1.8,12-4.9,14.8c-4.3,3.8-9.2,4.7-21.1,5.3
	c-27.5,1.5-55.5,1.3-90.6-1.2c-3.7-0.3-5-0.9-5.8-1.4c-1.6-1.1-1.7-2.3-2.2-8.5c-0.3-4.2-0.9-16.5-1.1-20.5
	c16.3,1,41.3,1.9,61.7,1.9c5.1,0,18.4,0.2,22,0.2c2.8,0,6.5-0.8,8.4-3.7l-92-15.8L45.1,171.4z"/>
</svg>
