<?xml version="1.0" encoding="utf-8"?>
<!-- Generator: Adobe Illustrator 24.3.0, SVG Export Plug-In . SVG Version: 6.00 Build 0)  -->
<svg version="1.0" id="Layer_1" xmlns="http://www.w3.org/2000/svg" xmlns:xlink="http://www.w3.org/1999/xlink" x="0px" y="0px"
	 viewBox="0 0 589.28 399.89" style="enable-background:new 0 0 589.28 399.89;" xml:space="preserve">
<style type="text/css">
	.st0{fill-rule:evenodd;clip-rule:evenodd;fill:#002E1F;}
</style>
<g>
	<path class="st0" d="M291.83,169.39c0-9.4,13.47-11.85,16.72-3.51c2.64,6.79-2.55,12.1-7.14,12.1c-4,0-7.25-1.41-8.8-5.07
		C292.36,172.32,291.83,170.03,291.83,169.39L291.83,169.39z M265.74,85.84c0.23,0.87,2.62,2.87,3.44,3.5
		c3.65,2.77,7.63,7.67,10.68,11.11c1.22,1.37,2.11,2.52,3.24,4.03c1.15,1.54,1.99,2.64,3.05,4.22c1.13,1.7,4.85,7.48,5.02,9.51
		c-1.01,0.02-1.2,0.15-1.98,0.33l-10.66-11.14c-0.8-0.67-1.02-0.7-1.81-1.49c-3.8-3.81-10-8.43-14.34-11.09
		c-0.88-0.54-7.16-4.13-8.29-3.74c-0.02,0.01-1.72,0.96-1.88,1.05l-5.76,3.81c-4.91,3.69-5.72,4.49-10.02,8.8l-3.05,3.56
		c4.64,3.11,11.22,6.21,17.08,10.66c3.9,2.96,12.08,8.5,14.95,12.79c-0.87,0.2-0.97,0.3-1.65,0.66c-5.06-3.39-10.72-6.68-16.89-8.88
		c-4.16-1.48-16.31-5.9-20.1-5.99c-0.45,1.68-7.56,12.87-8.87,25.54c-0.24,2.28,1.21,1.2,8.43,3.31c10.5,3.07,22.37,7.99,29.13,17.1
		c1.25,1.68,2.05,2.62,3.02,4.57c2.67,5.39,5.15,12.06,5.28,18.17c-8.71,0-5.09,0.38-12.74-2.78c-2.82-1.16-4.82-2.51-7.72-2.52
		c-6.83-0.02-13.66,0.01-20.49,0.01c0.34,1.44,2.09,4.53,2.86,6.06c0.55,1.1,0.94,1.66,1.58,2.72c2.27,3.75,4.73,7.26,7.55,10.62
		c0.8,0.96,1.53,1.38,2.22,2.4c11.38,0,8.21,1.01,16.62-3.19c3.43-1.71,3.12-2.1,8.15-2.09l62.42,0c0.55,2.37,1.51,3.6,1.65,5.28
		c3.29,0,10.09-2.16,12.75-3.77c2.74-1.67,7.62-4.5,9.38-7.13c-3.13-4.68-15.35-10.9-22.13-10.9c-0.14,1.69-1.09,2.88-1.65,5.28
		h-6.94c1.04-4.47,3.47-8.5,5.48-18.63c3.79-19.11,3.44-34.29-3.21-52.33c-0.99-2.69-2.38-5.98-3.85-8.37
		c-0.81-1.31-1.35-2.4-2.18-3.76c-0.84-1.37-1.68-2.52-2.51-3.77c-2.77-4.18-4.43-5.47-6.84-8.35l-6.13-6.09
		c-3.69-3.09-3.58-2.73-9.16-2.73C275.3,82.2,268.14,85.64,265.74,85.84z"/>
	<path class="st0" d="M207.28,152.88c0-13.31,3.77-27.69,10.13-39.08c3.73-6.68,9.5-14.43,15.05-19.63
		c13.52-12.67,33.68-22.2,52.11-22.2c11.63,0,21.31,0.55,32.14,4.85c2.41,0.96,4.7,1.83,6.95,2.96c4.72,2.38,13.84,7.83,17.98,11.75
		l2.64,2.31c2.92,2.73,3.02,3.27,4.78,5.13c3.07,3.24,3.84,4.64,6.58,8.28c0.76,1.01,1.25,2.01,1.93,3.03
		c3.2,4.77,6.05,11.37,7.88,16.89c0.83,2.5,1.61,4.91,2.22,7.69c2.52,11.48,2.91,24.49,0.07,35.8c-0.63,2.52-1.35,5.69-2.2,8.04
		c-0.43,1.19-0.91,2.45-1.36,3.59c-4.92,12.25-7.84,15.5-15.47,25.15c-3.12,3.95-11.75,10.9-16.5,13.88
		c-3.24,2.04-6.53,3.94-10.07,5.45c-13.83,5.92-27.26,8.64-42.56,6.75c-5.47-0.67-11.78-1.81-16.84-3.64
		c-1.19-0.43-2.45-0.91-3.59-1.36l-5.28-2.31c-0.71-0.31-1.09-0.37-1.85-0.8l-10.84-6.67c-0.58-0.42-1.07-0.68-1.57-1.07l-5.61-4.62
		c-2.88-2.28-7.19-7.54-9.62-10.52C213.45,189.2,207.28,169.99,207.28,152.88L207.28,152.88z M285.8,64.04
		c-15.05,0.4-29.79,4.5-42.92,12.48c-5.51,3.35-6.65,4.28-11.22,7.94c-3.16,2.53-4.48,4.09-7.3,6.91c-3.8,3.8-6.73,7.49-9.76,12.04
		c-7.49,11.24-13.84,26.92-14.6,40.55c-0.51,9.1-0.78,11.79,0.28,20.53c0.92,7.57,2.91,14.84,5.66,21.75
		c3.84,9.61,8.13,15.99,14.58,24.06l5.31,5.92c3.48,3.52,11.23,9.64,15.12,11.96c6.19,3.69,11.82,6.66,18.77,8.97
		c6.29,2.09,16.53,4.65,23.16,4.58c2.25-0.02,3.01,0.33,5.28,0.33c6.75,0,13.39-1,19.85-2.28c3.14-0.62,5.86-1.5,8.76-2.47
		c9.64-3.21,17.49-7.45,25.51-13.47l9.05-7.79c0.87-0.87,1.89-1.75,2.61-2.67c5.75-7.28,8.71-9.62,13.82-19.87
		c0.62-1.25,1.24-2.39,1.87-3.74c1.84-3.93,3.15-7.94,4.45-12.07c0.42-1.33,0.75-2.89,1.15-4.47c1.37-5.41,2.44-14.28,2.44-20.02
		c0-21.6-7.21-39.87-19.95-56.34c-0.51-0.66-0.77-0.82-1.24-1.41L354,92.69c-0.68-0.72-0.68-0.95-1.31-1.66l-5.64-5.25
		c-1.07-0.84-1.85-1.48-2.93-2.36c-5.61-4.58-10.33-7.33-16.83-10.58c-4.7-2.35-10.59-4.67-15.83-5.97
		c-6.86-1.7-13.8-2.65-20.72-2.84H285.8z"/>
	<path class="st0" d="M387.28,323.63h-35.34v-30.39h34.35c4.01,0,7.27,2.33,7.27,6.28v17.17
		C393.55,320.56,391.04,323.63,387.28,323.63L387.28,323.63z M338.4,281.69v54.17h52.18c3.9,0,9.71-3.92,12.23-7.26
		c5.44-7.22,4.29-15.72,4.29-26.1c0-6.51-2.03-13.08-7.13-16.98c-0.67-0.52-0.82-0.74-1.45-1.19c-3.24-2.33-8.16-3.63-12.56-3.63
		h-46.57C338.63,280.7,338.4,280.93,338.4,281.69z"/>
	<path class="st0" d="M266.4,316.7c0-4.78-0.83-17.82,1.26-20.54c0.79-1.03,2.36-2.58,4.03-2.58h33.03c3.02,0,5.61,2.6,5.61,5.61
		v18.83c0,3.11-2.84,5.61-5.94,5.61h-32.37C269.46,323.63,266.4,320.84,266.4,316.7L266.4,316.7z M253.19,299.19v19.16
		c0,3.89,2.68,9.11,5.36,11.81c2.35,2.37,6.97,5.69,11.48,5.69h36.99c1.42,0,2.5-0.31,3.59-0.7c0.82-0.3,2.25-0.85,3.01-1.28
		c0.83-0.48,1.71-1.13,2.58-1.71c4.25-2.83,7.66-9.32,7.66-14.47v-18.17c0-3.1-1-5.64-2.09-7.82c-0.75-1.5-0.96-1.89-1.87-3.09
		c-0.77-1.02-1.59-1.78-2.56-2.73c-3.77-3.68-9.54-5.19-14.95-5.19h-27.08c-8.23,0-13.5,2.25-17.76,7.34
		c-0.81,0.97-1.53,1.96-2.17,3.11C254.35,293.02,253.19,296.43,253.19,299.19z"/>
	<path class="st0" d="M177.56,335.85h13.54v-21.14h17.5l10.65,10.49c2.98,2.99,8.81,7.66,10.82,10.65h18.83l-28.07-27.08
		l14.45-13.95c1.24-1.24,2.23-2.23,3.47-3.47c2.93-2.93,9.01-7.96,10.82-10.65h-18.5c-1.19,1.78-13.4,13.24-15.94,15.77
		c-1.44,1.44-4.21,3.89-5.2,5.37H191.1V280.7h-13.54V335.85z"/>
	<path class="st0" d="M452.34,291.27c0.35,1.48,6.51,11.76,7.92,14.54l1.67,2.96c0.53,0.92,1.1,1.94,1.7,2.92
		c0.64,1.03,1.04,2.01,1.59,3.04h-26.09c1.04-1.96,1.98-3.78,3.17-5.75L452.34,291.27L452.34,291.27z M412.38,335.85h14.86
		l11.23-20.15l6.94,10.57h26.42c0.85,1.61,1.75,3.11,2.63,4.64l2.65,4.94h15.19c-0.45-1.93-6.09-10.91-7.6-13.87
		c-0.62-1.22-1.16-2.14-1.87-3.41l-11.55-20.48c-0.69-1.28-1.29-2.39-2.03-3.59l-7.66-13.81h-18.5l-4.64,8.58
		c-0.35,0.61-0.62,0.94-0.98,1.66c-0.67,1.31-1.31,2.34-1.97,3.64l-21.15,37.64C413.71,333.49,413.05,334.59,412.38,335.85z"/>
	<path class="st0" d="M97.96,294.24c0,5.81-0.75,11.99,3.05,15.78c2.1,2.1,4.82,3.71,8.18,3.71h40.95c0,12.97,3.49,10.57-21.8,10.57
		c-8.15,0-16.29,0-24.44,0c-1.14,2.16-6.58,10.24-6.94,11.56l57.73-0.06c1.94-0.32,4.77-2.25,5.88-3.7
		c1.46-1.92,2.77-3.95,2.77-7.13V312.4c0-4.13-2.98-8.12-6.64-9.54c-4.04-1.57-10.79-1.03-15.49-1.03l-24.44,0
		c-2.97,0-5.61,0.37-5.61-2.64v-18.5C102.85,280.7,97.96,286,97.96,294.24z"/>
	<path class="st0" d="M123.72,292.26h31.38l6.22-9.96c0.46-0.74,0.49-0.61,0.72-1.6h-45.25
		C117.25,282.68,122.37,289.7,123.72,292.26z"/>
</g>
</svg>
