<?xml version="1.0" encoding="UTF-8"?>
<svg id="katman_1" data-name="katman 1" xmlns="http://www.w3.org/2000/svg" version="1.1" viewBox="0 0 841.89 595.28">
  <defs>
    <style>
      .cls-1 {
        fill: #df013a;
      }

      .cls-1, .cls-2 {
        stroke-width: 0px;
      }

      .cls-2 {
        fill: #003790;
      }
    </style>
  </defs>
  <path class="cls-1" d="M133.61,262.23l27.55,19c6.23,4.66,13.84,7.13,21.62,7,15.23,0,29-10.23,29-10.23l-62.84-43.43s-6.85,7.55-28.39,21c-22.61,14.05-34.46,18.14-34.46,18.14l81.41,56.23-3.62,2.38-27.14-18.75c-6.24-4.67-13.86-7.13-21.65-7-15.2,0-29,10.26-29,10.26l62.87,43.43s6.87-7.54,28.39-21c22.61-14.09,34.46-18.18,34.46-18.18l-81.82-56.51,3.62-2.34Z"/>
  <path class="cls-2" d="M294.74,288.31c-11.94-1.54-22.58-1.85-22.85-6.19-.36-5.47,8.36-6,11.2-6,4.75,0,12.44,1.09,14.23,8.24h30.51c0-13.74-13-24.61-44.63-24.7-35.11-.09-41.11,15.39-41.11,24.2,0,16.32,12.66,21.14,40.09,24,10.19,1.07,16.67,1,16.67,6.11s-7.75,5.75-11,5.75c-3,0-11.44,0-14.2-8.55h-33.12c1.44,16,11.56,25.45,47.29,25.35,33.65-.1,42.46-13.74,42.46-24.18s-6.91-20.37-35.54-24.03Z"/>
  <polygon class="cls-2" points="430.03 280.29 470.34 280.29 428.63 319.26 428.63 334.79 513.35 334.79 513.35 316.18 471.2 316.18 513.48 277.3 513.48 261.75 430.03 261.75 430.03 280.29"/>
  <rect class="cls-2" x="714.57" y="261.75" width="27.56" height="73.04"/>
  <polygon class="cls-2" points="672.81 261.75 643.48 286.92 643.48 261.75 615.89 261.75 615.89 334.79 643.48 334.79 643.48 308.9 670.71 334.79 707.8 334.79 667.46 297.35 709.12 261.75 672.81 261.75"/>
  <path class="cls-2" d="M394.47,292.39v11.5c0,9-3.25,14.94-15.46,14.94s-15.46-6-15.46-14.94v-42.14h-26.46v26.61c0,3.51.07,15.29.14,21.89.09,9.39,2.41,27.33,41.75,27.33s41.65-17.94,41.75-27.33c.07-6.6.14-18.38.14-21.89v-26.61h-26.4v30.64Z"/>
  <path class="cls-2" d="M579.98,292.39v11.5c0,9-3.26,14.94-15.47,14.94s-15.42-5.96-15.42-14.94v-42.14h-26.47v26.61c0,3.51.07,15.29.14,21.89.1,9.39,2.41,27.33,41.75,27.33s41.66-17.94,41.75-27.33c.07-6.6.15-18.38.15-21.89v-26.61h-26.43v30.64Z"/>
  <path class="cls-2" d="M751.62,329.67c.58,0,1-.13,1-.78s-.74-.69-1.24-.69h-1.29v1.47h1.53ZM753.46,332.67h-1.19l-1.18-2.22h-1v2.18h-1v-5.18h2.52c.48-.03.96.05,1.4.24.43.31.67.82.62,1.35,0,1-.5,1.35-1.42,1.41l1.25,2.22ZM754.97,330.07c0-2.16-1.76-3.91-3.92-3.9-2.16,0-3.91,1.76-3.9,3.92,0,2.16,1.76,3.91,3.92,3.9,2.15,0,3.89-1.73,3.9-3.88,0-.01,0-.03,0-.04M746.24,330.07c0-2.66,2.15-4.82,4.81-4.83,2.66,0,4.82,2.15,4.83,4.81,0,2.66-2.15,4.82-4.81,4.83s-4.82-2.15-4.83-4.81h0"/>
</svg>