<?xml version="1.0" encoding="utf-8"?>
<!-- Generator: Adobe Illustrator 25.0.1, SVG Export Plug-In . SVG Version: 6.00 Build 0)  -->
<svg version="1.0" id="master-artboard" xmlns="http://www.w3.org/2000/svg" xmlns:xlink="http://www.w3.org/1999/xlink" x="0px"
	 y="0px" viewBox="0 0 1624.9 1262.2" style="enable-background:new 0 0 1624.9 1262.2;" xml:space="preserve">
<style type="text/css">
	.st0{fill:#FFFFFF;fill-opacity:0;}
	.st1{fill:none;}
	.st2{fill:#001E50;}
</style>
<rect id="ee-background" x="300.4" y="119.1" class="st0" width="1024" height="1024"/>
<g transform="matrix(10.188387870788574, 0, 0, 10.188387870788574, -251.519936680809, -252.79260253906244)">
	<g>
		<path class="st1" d="M4.5-13.3h200v200H4.5V-13.3z"/>
		<path class="st2" d="M104.5,132.1c-24.9,0-45.3-20.5-45.3-45.4c0-5.6,1-10.9,2.9-15.9l26.5,53.3c0.3,0.7,0.8,1.3,1.6,1.3
			c0.8,0,1.3-0.6,1.6-1.3L104,96.8c0.1-0.3,0.3-0.6,0.6-0.6s0.4,0.3,0.6,0.6l12.2,27.3c0.3,0.7,0.8,1.3,1.6,1.3
			c0.8,0,1.3-0.6,1.6-1.3l26.5-53.3c1.9,5,2.9,10.3,2.9,15.9C149.8,111.6,129.4,132.1,104.5,132.1z M104.5,76.4
			c-0.3,0-0.4-0.3-0.6-0.6l-14.2-32c4.6-1.7,9.6-2.6,14.8-2.6s10.2,0.9,14.8,2.6l-14.2,32C104.9,76.2,104.8,76.4,104.5,76.4z
			 M90,109.3c-0.3,0-0.4-0.3-0.6-0.6l-23-46.4C70.5,56,76,50.7,82.7,47l16.6,36.9c0.2,0.6,0.7,0.8,1.2,0.8h8c0.6,0,1-0.1,1.3-0.8
			L126.4,47c6.6,3.7,12.2,9,16.3,15.3l-23.2,46.4c-0.1,0.3-0.3,0.6-0.6,0.6c-0.3,0-0.4-0.3-0.6-0.6l-8.7-19.8
			c-0.3-0.7-0.7-0.8-1.3-0.8h-8c-0.6,0-1,0.1-1.3,0.8l-8.4,19.8C90.5,109,90.3,109.3,90,109.3z M104.5,136.7c27.7,0,50-22.3,50-50
			s-22.3-50-50-50s-50,22.3-50,50S76.8,136.7,104.5,136.7z"/>
	</g>
</g>
</svg>
